<svg xmlns="http://www.w3.org/2000/svg" viewBox="0 0 800 600" width="800" height="600" role="img" aria-label="Abstract material illustration">
<defs><linearGradient id="bg" x1="0" y1="0" x2="1" y2="1">
    <stop offset="0" stop-color="#22262b"/><stop offset="1" stop-color="#16181b"/>
  </linearGradient><linearGradient id="tone" x1="0" y1="0" x2="1" y2="1">
    <stop offset="0" stop-color="#9aa6b0"/><stop offset="1" stop-color="#68727c"/>
  </linearGradient></defs>
<rect width="800" height="600" fill="url(#bg)"/>
<g><rect x="112.0" y="138.0" width="576.0" height="324.0" rx="6" fill="#ffffff" opacity="0.03"/><rect x="161.5" y="186.0" width="11.83" height="228.0" rx="5.91" fill="url(#tone)" opacity="0.320"/><rect x="180.6" y="186.0" width="11.83" height="228.0" rx="5.91" fill="url(#tone)" opacity="0.380"/><rect x="199.7" y="186.0" width="11.83" height="228.0" rx="5.91" fill="url(#tone)" opacity="0.440"/><rect x="218.8" y="186.0" width="11.83" height="228.0" rx="5.91" fill="url(#tone)" opacity="0.497"/><rect x="237.8" y="186.0" width="11.83" height="228.0" rx="5.91" fill="url(#tone)" opacity="0.552"/><rect x="256.9" y="186.0" width="11.83" height="228.0" rx="5.91" fill="url(#tone)" opacity="0.604"/><rect x="276.0" y="186.0" width="11.83" height="228.0" rx="5.91" fill="url(#tone)" opacity="0.652"/><rect x="295.1" y="186.0" width="11.83" height="228.0" rx="5.91" fill="url(#tone)" opacity="0.694"/><rect x="314.2" y="186.0" width="11.83" height="228.0" rx="5.91" fill="url(#tone)" opacity="0.731"/><rect x="333.2" y="186.0" width="11.83" height="228.0" rx="5.91" fill="url(#tone)" opacity="0.763"/><rect x="352.3" y="186.0" width="11.83" height="228.0" rx="5.91" fill="url(#tone)" opacity="0.788"/><rect x="371.4" y="186.0" width="11.83" height="228.0" rx="5.91" fill="url(#tone)" opacity="0.805"/><rect x="390.5" y="186.0" width="11.83" height="228.0" rx="5.91" fill="url(#tone)" opacity="0.816"/><rect x="409.5" y="186.0" width="11.83" height="228.0" rx="5.91" fill="url(#tone)" opacity="0.820"/><rect x="428.6" y="186.0" width="11.83" height="228.0" rx="5.91" fill="url(#tone)" opacity="0.816"/><rect x="447.7" y="186.0" width="11.83" height="228.0" rx="5.91" fill="url(#tone)" opacity="0.805"/><rect x="466.8" y="186.0" width="11.83" height="228.0" rx="5.91" fill="url(#tone)" opacity="0.788"/><rect x="485.8" y="186.0" width="11.83" height="228.0" rx="5.91" fill="url(#tone)" opacity="0.763"/><rect x="504.9" y="186.0" width="11.83" height="228.0" rx="5.91" fill="url(#tone)" opacity="0.731"/><rect x="524.0" y="186.0" width="11.83" height="228.0" rx="5.91" fill="url(#tone)" opacity="0.694"/><rect x="543.1" y="186.0" width="11.83" height="228.0" rx="5.91" fill="url(#tone)" opacity="0.652"/><rect x="562.2" y="186.0" width="11.83" height="228.0" rx="5.91" fill="url(#tone)" opacity="0.604"/><rect x="581.2" y="186.0" width="11.83" height="228.0" rx="5.91" fill="url(#tone)" opacity="0.552"/><rect x="600.3" y="186.0" width="11.83" height="228.0" rx="5.91" fill="url(#tone)" opacity="0.497"/><rect x="619.4" y="186.0" width="11.83" height="228.0" rx="5.91" fill="url(#tone)" opacity="0.440"/><rect x="638.5" y="186.0" width="11.83" height="228.0" rx="5.91" fill="url(#tone)" opacity="0.380"/><rect x="112.0" y="120.0" width="28.0" height="360.0" rx="3" fill="#5c6066" opacity="0.55"/><rect x="660.0" y="120.0" width="28.0" height="360.0" rx="3" fill="#5c6066" opacity="0.55"/></g>
</svg>
